<svg version="1.1" xmlns="http://www.w3.org/2000/svg" width="800" height="300" fill="none" viewBox="0 0 -800 -300"  >
<path d="M0 0 C3.52452815 2.3790565 4.70463296 5.02681537 6 9 C8.09513951 32.168345 -2.00865701 51.92075078 -14 71 C-15.00424427 72.66411274 -16.00601998 74.3297361 -17 76 C-15.515 78.475 -15.515 78.475 -14 81 C-8.6913151 80.41825155 -8.6913151 80.41825155 -4 78 C-3.19212188 74.96512398 -3.19212188 74.96512398 -2.6875 71.4375 C-0.85184264 62.14507905 3.00228381 56.24268198 10.19140625 50.19140625 C14.35582831 47.44810446 17.86509686 46.75578547 22.8125 46.875 C23.78832031 46.89304688 24.76414062 46.91109375 25.76953125 46.9296875 C26.87361328 46.96449219 26.87361328 46.96449219 28 47 C28 47.99 28 48.98 28 50 C29.27875 49.95875 30.5575 49.9175 31.875 49.875 C34.0546875 49.8046875 34.0546875 49.8046875 36 50 C38 52 38 52 38.046875 54.1796875 C37.94890625 55.06914062 37.8509375 55.95859375 37.75 56.875 C37.64300781 57.85597656 37.53601563 58.83695313 37.42578125 59.84765625 C36.86769755 63.97952362 36.16829765 68.07764835 35.40234375 72.17578125 C34.97818174 75.15315147 34.93345578 77.99663769 35 81 C37.67294307 80.33176423 39.51251346 79.75487655 41.046875 77.37890625 C41.51867187 76.44884766 41.51867187 76.44884766 42 75.5 C43.3393129 72.92851924 43.84426786 72.09835714 46.375 70.5 C49.51191644 69.90249211 51.90731379 70.28077065 55 71 C55 74.63 55 78.26 55 82 C58.95654513 81.50318272 58.95654513 81.50318272 60.046875 79.3203125 C62.00334172 73.21178863 64.01311005 65.02622011 61 59 C60.484375 59.825 59.96875 60.65 59.4375 61.5 C57 64 57 64 53.375 64.4375 C50 64 50 64 48 62 C47.22799008 57.43077852 47.40637012 53.94980781 49.875 50 C53.88775495 46.22328946 57.60598025 46.61999033 62.93359375 46.6328125 C67.51376292 47.18126588 69.6324425 48.93858409 73 52 C73.78375 51.360625 74.5675 50.72125 75.375 50.0625 C79.02121012 47.19762062 80.85414322 46.82304154 85.4375 46.75 C86.88962891 46.71132812 86.88962891 46.71132812 88.37109375 46.671875 C91 47 91 47 92.82421875 48.171875 C94.44262551 50.68820178 94.39897981 52.52650394 94.375 55.5 C94.38273438 56.4590625 94.39046875 57.418125 94.3984375 58.40625 C94 61 94 61 92.70703125 62.83203125 C89.95343606 64.71607006 87.22687331 64.18265321 84 64 C83.67 62.35 83.34 60.7 83 59 C79.0393174 61.64045506 78.96416082 63.40169457 78 68 C77.67411194 71.57146708 77.75104957 74.92121481 78.5625 78.4375 C80.04549474 80.3130074 80.04549474 80.3130074 83.25 81 C87.80577989 81 89.51588542 79.83590721 93 77 C95.46941688 74.53058312 95.55193271 73.09943654 96.18359375 69.6953125 C96.38919922 68.63699219 96.59480469 67.57867187 96.80664062 66.48828125 C97.22566541 64.25434728 97.64235003 62.01997303 98.05664062 59.78515625 C98.26353516 58.72425781 98.47042969 57.66335937 98.68359375 56.5703125 C98.86462646 55.59852051 99.04565918 54.62672852 99.23217773 53.62548828 C100.05640635 50.80712436 100.99672596 49.13512567 103 47 C105.48046875 46.609375 105.48046875 46.609375 108.1875 46.75 C109.08855469 46.78609375 109.98960937 46.8221875 110.91796875 46.859375 C111.60503906 46.90578125 112.29210937 46.9521875 113 47 C114.14384684 51.89354343 113.65748707 55.80869035 112.5625 60.625 C111.12320136 67.48897932 110.64053032 73.97037079 111 81 C113.91517292 79.92598892 115.77810176 79.22189824 118 77 C118.31487564 74.408629 118.31487564 74.408629 118.375 71.4375 C118.91393285 63.55206152 121.31523717 56.68476283 127 51 C132.59491378 46.49974326 137.66834299 46.38494383 144.75 46.625 C148.95316341 47.10998039 151.033121 47.95704718 154 51 C156.83480905 54.80051324 159.02884945 58.32176938 160 63 C161.98 63 163.96 63 166 63 C166.10957031 62.33613281 166.21914063 61.67226562 166.33203125 60.98828125 C168.15302491 50.84697509 168.15302491 50.84697509 172 47 C173.68608966 46.92794489 175.37500659 46.91613932 177.0625 46.9375 C177.98160156 46.94652344 178.90070313 46.95554688 179.84765625 46.96484375 C180.55792969 46.97644531 181.26820313 46.98804688 182 47 C182.14869395 52.02973442 181.63816 56.46504955 180.5625 61.375 C179.38408179 66.91020262 178.49467906 72.36065868 178 78 C185.67804714 71.63818951 188.25024192 61.76517507 191.10546875 52.53125 C192 50 192 50 194 47 C196.3828125 46.70703125 196.3828125 46.70703125 199.125 46.8125 C200.03507812 46.83957031 200.94515625 46.86664063 201.8828125 46.89453125 C202.58148437 46.92933594 203.28015625 46.96414062 204 47 C204.23443702 53.32247326 203.37390754 58.90312397 202 65.0625 C200.72073934 70.8234948 199.74321858 76.08600292 200 82 C209.82252375 76.25023 214.37204659 67.89702451 219.10546875 57.90234375 C220.90936363 54.14164974 222.7599336 50.52395215 225 47 C228.88348484 45.70550505 231.90697336 45.86796688 236 46 C236.33 46.33 236.66 46.66 237 47 C236.57850581 50.51245159 236.02404294 53.90116964 235.1875 57.33984375 C234.95084786 61.95949081 236.58856373 64.02615107 239.375 67.4375 C244.21470488 73.88122662 245.55574864 77.47461821 244.5625 85.5625 C242.36089817 90.40602402 239.72519055 93.47792027 235 96 C229.48843326 97.05525469 224.82614163 96.87795271 219.75 94.4375 C217.3497796 91.09433587 217.41472501 89.02376553 218 85 C219.23828125 83.296875 219.23828125 83.296875 221 82 C223.26171875 81.70703125 223.26171875 81.70703125 225.6875 81.8125 C226.89986328 81.85310547 226.89986328 81.85310547 228.13671875 81.89453125 C228.75160156 81.92933594 229.36648438 81.96414062 230 82 C229.71125 81.44570312 229.4225 80.89140625 229.125 80.3203125 C228.75375 79.59585938 228.3825 78.87140625 228 78.125 C227.62875 77.40570313 227.2575 76.68640625 226.875 75.9453125 C226 74 226 74 226 72 C225.34 72 224.68 72 224 72 C223.75636719 72.721875 223.51273438 73.44375 223.26171875 74.1875 C219.89309079 81.69651589 212.89592014 87.72452951 206 92 C201.39371794 93.53542735 196.8105271 93.54172602 192 93 C189.4375 91.125 189.4375 91.125 188 89 C187.34 88.34 186.68 87.68 186 87 C184.7934375 88.485 184.7934375 88.485 183.5625 90 C180.93374001 92.6225307 179.15877987 93.5070366 175.4375 93.6875 C172.01905016 93.43428149 170.98419324 92.98890163 168.0625 90.9375 C164.50921681 85.87676333 163.70228731 81.10311005 164 75 C161.56635726 75.13458979 161.56635726 75.13458979 159 76 C157.56219338 78.08616737 157.56219338 78.08616737 156.625 80.6875 C154.33673286 85.7419635 151.67708638 88.99646822 147 92 C141.64053244 93.78648919 134.22359785 94.40878608 128.953125 92.10546875 C127.59930132 91.11801488 126.29542364 90.06291171 125 89 C120.98698552 88.58353663 120.98698552 88.58353663 118.5 91 C114.03200767 94.21924575 108.24237191 93.81045025 103 93 C100.6328125 91.59765625 100.6328125 91.59765625 99 90 C99 89.34 99 88.68 99 88 C98.44054687 88.3609375 97.88109375 88.721875 97.3046875 89.09375 C89.98998565 93.3273395 83.36457239 94.17022606 75 93 C72.7265625 92.01953125 72.7265625 92.01953125 70.9375 90.875 C69.968125 90.25625 68.99875 89.6375 68 89 C64.68988916 89.75229792 62.838258 91.107828 60 93 C57.2578125 93.265625 57.2578125 93.265625 54.125 93.25 C52.58199219 93.25773437 52.58199219 93.25773437 51.0078125 93.265625 C48 93 48 93 45.3671875 91.859375 C43.04524616 90.71280058 43.04524616 90.71280058 40.9921875 91.84765625 C40.33476562 92.22792969 39.67734375 92.60820312 39 93 C34.87618027 93.64647339 30.73358111 93.97940507 27.015625 91.87890625 C25.375 90.5 25.375 90.5 23 88 C22.2575 88.825 21.515 89.65 20.75 90.5 C16.78789167 93.83651227 12.78833504 93.51947415 7.8046875 93.46875 C4.69052147 92.94827657 3.44272129 91.89989434 1 90 C-1.91336749 90.6992082 -4.32983461 91.66491731 -7 93 C-12.79049444 93.48787315 -18.15669481 93.7761285 -23.5625 91.5 C-28.11044282 86.83544326 -30.14616527 81.1794491 -32 75 C-34.84534204 74.70371263 -34.84534204 74.70371263 -38 76 C-39.45204538 78.38870427 -40.51339516 80.85893955 -41.64453125 83.4140625 C-44.14499092 88.1843919 -47.92389839 91.30796613 -53 93 C-58.8636172 93.47754426 -64.17989266 93.86215611 -69.5625 91.3125 C-74.45067033 86.67500507 -77.62620111 82.59890091 -78.3359375 75.765625 C-78.43769017 66.60788474 -77.10069508 60.8114234 -72.1875 53.1875 C-66.95900752 47.95900752 -63.27203837 46.72413236 -55.9375 46.5 C-50.47618865 46.6851292 -46.95919811 46.93928399 -43 51 C-40.16519095 54.80051324 -37.97115055 58.32176938 -37 63 C-35.35 63 -33.7 63 -32 63 C-31.96132813 61.59814453 -31.96132813 61.59814453 -31.921875 60.16796875 C-31.12261591 41.65785481 -28.13479797 19.7239708 -16 5 C-15.55011719 4.4534375 -15.10023438 3.906875 -14.63671875 3.34375 C-10.44922237 -0.9027252 -5.56549659 -1.03277256 0 0 Z M-8 11 C-14.13407125 23.59495778 -18.30970113 39.34703536 -18.0625 53.4375 C-18.041875 54.613125 -18.02125 55.78875 -18 57 C-14.70768548 53.25970316 -12.69765389 49.49113032 -10.9375 44.875 C-10.68145996 44.21121338 -10.42541992 43.54742676 -10.16162109 42.86352539 C-6.1521368 32.28599029 -4.55027529 23.40968243 -5 12 C-5.99 11.67 -6.98 11.34 -8 11 Z M16.49609375 60.32421875 C11.94241042 65.42481967 10.55442577 71.36958139 10.56640625 78.0546875 C11.10775407 80.48343717 12.12631242 81.41954204 14 83 C16.9713633 81.97539197 17.9140976 81.14616556 19.53125 78.39453125 C21.12958096 74.70051633 21.94421597 71.26488334 22.6875 67.3125 C22.81705078 66.64927734 22.94660156 65.98605469 23.08007812 65.30273438 C23.6163536 62.48516005 24 59.87479134 24 57 C20.46798122 57 19.09622443 58.02235742 16.49609375 60.32421875 Z M-60.5 60.375 C-64.68936879 64.77383723 -64.32203413 68.16519062 -64.30078125 74.06640625 C-63.92421556 77.73914431 -62.76679147 79.57905747 -60 82 C-57.38893404 81.64715325 -55.44809818 81.30406662 -53.25 79.8125 C-51.41508147 77.15186814 -51.06449984 75.22499219 -51 72 C-52.31665664 70.32012773 -53.65263027 68.65533995 -55 67 C-55.91517301 64.0394403 -56.49418018 61.05488552 -57 58 C-58.45387985 57.88520842 -58.45387985 57.88520842 -60.5 60.375 Z M136.5 60.375 C132.31063121 64.77383723 132.67796587 68.16519062 132.69921875 74.06640625 C133.07578444 77.73914431 134.23320853 79.57905747 137 82 C139.61106596 81.64715325 141.55190182 81.30406662 143.75 79.8125 C145.58491853 77.15186814 145.93550016 75.22499219 146 72 C144.68334336 70.32012773 143.34736973 68.65533995 142 67 C141.08482699 64.0394403 140.50581982 61.05488552 140 58 C138.54612015 57.88520842 138.54612015 57.88520842 136.5 60.375 Z " stroke="black" stroke-width="4" stroke-linecap="round" data-duration="100"/>
<path d="M0 0 C3.30654083 2.70897321 5.27562831 5.29172868 6.62109375 9.328125 C7.28681668 16.79295265 7.30515147 22.3229228 2.62109375 28.328125 C-1.78801851 32.93815883 -6.60770951 35.69564929 -12.37890625 38.328125 C-11.45078125 38.84375 -10.52265625 39.359375 -9.56640625 39.890625 C-6.00906868 42.30995174 -4.22203074 45.11250256 -3.37890625 49.328125 C-3.05127403 55.41414173 -4.22076426 60.50835406 -7.73828125 65.51171875 C-14.20591804 72.67231662 -23.11653364 75.69859451 -32.37890625 77.328125 C-34.0714787 77.40512786 -35.76664624 77.43617567 -37.4609375 77.42578125 C-38.39228516 77.42255859 -39.32363281 77.41933594 -40.28320312 77.41601562 C-41.72276367 77.40344727 -41.72276367 77.40344727 -43.19140625 77.390625 C-44.17044922 77.38611328 -45.14949219 77.38160156 -46.15820312 77.37695312 C-48.56516736 77.36521184 -50.97200482 77.34878919 -53.37890625 77.328125 C-53.50265625 77.9675 -53.62640625 78.606875 -53.75390625 79.265625 C-53.96015625 79.94625 -54.16640625 80.626875 -54.37890625 81.328125 C-56.8566572 82.56700048 -58.61544332 82.49554169 -61.37890625 82.515625 C-62.26578125 82.52980469 -63.15265625 82.54398437 -64.06640625 82.55859375 C-66.37890625 82.328125 -66.37890625 82.328125 -68.37890625 80.328125 C-69.38224154 70.36136114 -67.81061333 60.39354124 -66.19140625 50.578125 C-66.07941895 49.88345123 -65.96743164 49.18877747 -65.85205078 48.47305298 C-64.49354735 40.0901956 -63.03678136 31.7356034 -60.87890625 23.515625 C-60.70206299 22.80631836 -60.52521973 22.09701172 -60.34301758 21.36621094 C-59.4111577 18.13793838 -58.60631748 16.50873778 -55.94921875 14.3984375 C-52.58102123 12.995875 -49.99268733 12.99351564 -46.37890625 13.328125 C-44.89390625 14.318125 -44.89390625 14.318125 -43.37890625 15.328125 C-44.07112665 23.22456511 -45.65032729 30.83505298 -47.31640625 38.578125 C-49.29614527 47.79763954 -51.05427682 56.99002681 -52.37890625 66.328125 C-37.81256836 65.81331679 -37.81256836 65.81331679 -24.37890625 60.578125 C-21.71527972 57.58154515 -20.99186665 55.27831427 -20.37890625 51.328125 C-20.60434961 47.98339264 -20.60434961 47.98339264 -22.37890625 45.328125 C-26.95619962 43.36642784 -31.63620957 43.00559596 -36.55859375 42.671875 C-37.15929687 42.5584375 -37.76 42.445 -38.37890625 42.328125 C-39.76440822 39.55712106 -39.56665295 37.3946544 -39.37890625 34.328125 C-37.37890625 31.328125 -37.37890625 31.328125 -33.74609375 30.5546875 C-32.24964785 30.3471964 -30.75217156 30.14704239 -29.25390625 29.953125 C-22.53306645 28.93526327 -17.76061579 27.72135728 -12.37890625 23.328125 C-9.87858971 19.57765018 -9.84287071 17.76956234 -10.37890625 13.328125 C-14.01767505 8.64970797 -17.65195756 6.75997894 -23.4375 5.84375 C-38.9812291 4.62181523 -54.19324014 7.22667417 -68.00390625 14.703125 C-71.37890625 16.328125 -71.37890625 16.328125 -74.31640625 16.140625 C-76.37890625 15.328125 -76.37890625 15.328125 -77.37890625 14.328125 C-77.81640625 11.078125 -77.81640625 11.078125 -77.37890625 7.328125 C-62.34915539 -10.20658433 -18.33474919 -12.65516992 0 0 Z " stroke="black" stroke-width="4" stroke-linecap="round" data-duration="100"/>
<path d="M0 0 C2.625 1.625 2.625 1.625 4 4 C4.75187617 7.92646445 4.32320201 9.48733474 2.1875 12.875 C-1.86856009 15.57904006 -4.70136731 15.55986489 -9.4765625 15.56640625 C-12 15 -12 15 -13.8046875 13.1484375 C-15.47270692 10.15036338 -15.55224753 8.3825161 -15 5 C-11.19599472 -0.83280809 -6.43854716 -1.16176146 0 0 Z "  stroke="black" stroke-width="4" stroke-linecap="round" data-duration="100"/>
</svg>
