<svg width="703.348" height="94.675" viewBox="211.887 268.659 703.348 94.675" fill="none" xmlns="http://www.w3.org/2000/svg"><path d="M 230.40,287.53 C 230.04 288.93, 230.23 290.72, 230.51 294.26 C 230.80 297.80, 231.23 300.36, 231.82 305.25 C 232.41 310.13, 232.87 313.19, 233.46 318.68 C 234.05 324.18, 234.01 329.96, 234.77 332.73 C 235.53 335.50, 236.97 335.39, 237.27 332.52 C 237.57 329.66, 236.77 323.93, 236.30 318.41 C 235.82 312.88, 235.38 309.82, 234.90 304.91 C 234.42 300.00, 234.42 297.40, 233.89 293.87 C 233.37 290.35, 232.98 288.56, 232.28 287.29 C 231.58 286.02, 230.75 286.14, 230.40 287.53" stroke="black" stroke-width="4" stroke-linecap="round" data-duration="250"/><path d="M 216.12,283.83 C 216.91 283.93, 217.47 283.55, 218.84 282.96 C 220.22 282.37, 221.07 281.78, 222.98 280.89 C 224.90 280.00, 225.76 279.32, 228.42 278.51 C 231.08 277.71, 232.86 277.26, 236.29 276.86 C 239.73 276.46, 241.68 276.31, 245.58 276.52 C 249.48 276.73, 251.67 277.04, 255.79 277.93 C 259.91 278.83, 262.39 279.46, 266.18 280.99 C 269.96 282.52, 271.88 283.59, 274.71 285.60 C 277.53 287.60, 278.77 288.88, 280.30 291.01 C 281.82 293.14, 282.33 294.20, 282.32 296.25 C 282.32 298.29, 281.64 299.12, 280.27 301.23 C 278.91 303.33, 277.93 304.68, 275.50 306.78 C 273.07 308.88, 271.39 309.98, 268.13 311.71 C 264.87 313.44, 262.86 314.29, 259.20 315.43 C 255.53 316.58, 253.38 316.98, 249.81 317.43 C 246.23 317.88, 244.29 317.70, 241.33 317.69 C 238.37 317.69, 236.91 317.53, 234.99 317.40 C 233.07 317.28, 232.31 317.19, 231.72 317.07 C 231.14 316.96, 231.19 317.02, 232.05 316.83 C 232.90 316.65, 233.75 316.71, 236.01 316.15 C 238.28 315.59, 239.90 314.72, 243.39 314.04 C 246.88 313.36, 249.12 313.01, 253.48 312.73 C 257.84 312.45, 260.32 312.35, 265.18 312.63 C 270.04 312.92, 272.78 313.19, 277.80 314.15 C 282.82 315.12, 285.57 315.96, 290.28 317.44 C 295.00 318.93, 297.37 319.78, 301.38 321.59 C 305.39 323.40, 307.42 324.48, 310.34 326.50 C 313.26 328.51, 314.35 329.88, 316.00 331.66 C 317.65 333.45, 318.43 333.94, 318.58 335.42 C 318.73 336.90, 318.32 337.42, 316.76 339.06 C 315.19 340.70, 313.97 341.91, 310.77 343.64 C 307.57 345.36, 305.14 346.15, 300.75 347.66 C 296.35 349.17, 293.61 350.03, 288.79 351.18 C 283.97 352.32, 281.28 352.86, 276.67 353.39 C 272.06 353.91, 269.77 353.81, 265.74 353.81 C 261.71 353.80, 259.54 353.53, 256.51 353.35 C 253.49 353.18, 252.47 353.07, 250.61 352.91 C 248.76 352.76, 248.00 352.41, 247.24 352.58 C 246.48 352.75, 246.27 353.13, 246.82 353.77 C 247.36 354.41, 248.09 355.11, 249.98 355.79 C 251.87 356.46, 253.10 356.92, 256.26 357.15 C 259.43 357.38, 261.66 357.12, 265.81 356.94 C 269.96 356.75, 272.28 356.81, 277.00 356.22 C 281.73 355.64, 284.49 355.11, 289.44 354.02 C 294.39 352.92, 297.13 352.16, 301.75 350.75 C 306.36 349.34, 308.91 348.81, 312.51 346.98 C 316.12 345.15, 317.95 343.97, 319.77 341.60 C 321.59 339.24, 321.80 337.64, 321.61 335.16 C 321.42 332.68, 320.72 331.48, 318.83 329.20 C 316.93 326.92, 315.40 325.80, 312.14 323.75 C 308.88 321.70, 306.74 320.74, 302.52 318.97 C 298.31 317.19, 295.92 316.37, 291.08 314.88 C 286.24 313.39, 283.46 312.54, 278.32 311.52 C 273.18 310.49, 270.38 310.20, 265.39 309.76 C 260.40 309.33, 257.91 309.36, 253.38 309.35 C 248.85 309.34, 246.53 309.30, 242.74 309.71 C 238.95 310.12, 236.94 310.36, 234.43 311.40 C 231.92 312.43, 231.04 313.44, 230.19 314.89 C 229.34 316.33, 229.37 317.36, 230.19 318.64 C 231.01 319.91, 232.05 320.61, 234.29 321.24 C 236.52 321.88, 238.15 321.85, 241.36 321.81 C 244.56 321.76, 246.54 321.62, 250.32 321.02 C 254.10 320.41, 256.34 320.00, 260.24 318.80 C 264.14 317.60, 266.26 316.80, 269.83 315.01 C 273.40 313.22, 275.29 312.16, 278.09 309.84 C 280.89 307.51, 282.27 306.12, 283.84 303.39 C 285.41 300.66, 286.02 299.10, 285.93 296.19 C 285.85 293.28, 285.25 291.53, 283.40 288.84 C 281.55 286.16, 279.88 284.93, 276.68 282.76 C 273.48 280.58, 271.42 279.57, 267.39 277.97 C 263.35 276.37, 260.81 275.75, 256.50 274.76 C 252.19 273.77, 249.95 273.41, 245.85 273.02 C 241.74 272.64, 239.74 272.70, 236.00 272.83 C 232.26 272.96, 230.23 272.97, 227.16 273.67 C 224.09 274.36, 222.81 275.11, 220.65 276.29 C 218.50 277.47, 217.54 278.32, 216.38 279.55 C 215.23 280.78, 214.94 281.60, 214.89 282.46 C 214.84 283.32, 215.33 283.73, 216.12 283.83" stroke="black" stroke-width="4" stroke-linecap="round" data-duration="250"/><path d="M 352.54,331.13 C 351.97 330.65, 351.38 330.38, 350.09 330.44 C 348.79 330.50, 347.70 330.71, 346.05 331.42 C 344.39 332.12, 343.41 332.79, 341.79 333.96 C 340.18 335.13, 339.11 335.79, 337.95 337.26 C 336.79 338.73, 336.27 339.65, 335.99 341.32 C 335.71 342.99, 335.73 344.03, 336.54 345.61 C 337.35 347.19, 338.18 348.20, 340.04 349.23 C 341.91 350.25, 343.29 350.42, 345.87 350.74 C 348.44 351.06, 349.99 351.17, 352.92 350.82 C 355.85 350.46, 357.67 350.05, 360.51 348.97 C 363.36 347.89, 364.80 347.11, 367.16 345.43 C 369.52 343.75, 370.73 342.80, 372.32 340.55 C 373.91 338.31, 374.58 336.79, 375.10 334.22 C 375.62 331.64, 375.32 330.20, 374.92 327.69 C 374.53 325.19, 374.16 324.11, 373.11 321.68 C 372.06 319.24, 371.27 317.67, 369.66 315.53 C 368.05 313.38, 366.70 312.30, 365.06 310.96 C 363.42 309.62, 362.67 309.44, 361.46 308.83 C 360.26 308.21, 359.69 307.87, 359.02 307.89 C 358.36 307.91, 358.06 308.26, 358.14 308.92 C 358.22 309.57, 358.70 310.09, 359.42 311.16 C 360.14 312.24, 360.53 312.79, 361.75 314.29 C 362.96 315.79, 364.08 316.78, 365.51 318.66 C 366.94 320.54, 367.86 321.72, 368.89 323.68 C 369.92 325.64, 370.29 326.51, 370.68 328.45 C 371.08 330.39, 371.24 331.46, 370.87 333.38 C 370.50 335.29, 370.09 336.36, 368.83 338.00 C 367.57 339.65, 366.59 340.37, 364.59 341.61 C 362.60 342.86, 361.31 343.45, 358.85 344.23 C 356.40 345.02, 354.83 345.28, 352.33 345.53 C 349.83 345.78, 348.44 345.60, 346.34 345.49 C 344.25 345.38, 343.21 345.34, 341.88 344.99 C 340.54 344.63, 340.15 344.27, 339.66 343.71 C 339.16 343.15, 339.10 342.79, 339.39 342.18 C 339.69 341.57, 340.02 341.31, 341.13 340.65 C 342.24 340.00, 343.42 339.74, 344.94 338.91 C 346.47 338.07, 347.46 337.38, 348.77 336.48 C 350.09 335.58, 350.71 335.13, 351.54 334.41 C 352.37 333.68, 352.72 333.52, 352.92 332.87 C 353.12 332.22, 353.11 331.62, 352.54 331.13" stroke="black" stroke-width="4" stroke-linecap="round" data-duration="250"/><path d="M 407.36,272.46 C 406.79 273.50, 406.43 274.89, 406.40 277.57 C 406.36 280.26, 406.79 282.24, 407.19 285.88 C 407.59 289.53, 407.89 291.66, 408.39 295.79 C 408.90 299.92, 409.15 302.19, 409.72 306.55 C 410.28 310.92, 410.56 313.43, 411.21 317.61 C 411.86 321.79, 412.00 323.72, 412.95 327.44 C 413.91 331.16, 414.99 334.58, 416.00 336.22 C 417.02 337.86, 418.03 337.53, 418.04 335.64 C 418.04 333.74, 416.77 330.44, 416.03 326.74 C 415.30 323.04, 414.97 321.24, 414.35 317.13 C 413.73 313.01, 413.40 310.51, 412.93 306.17 C 412.45 301.83, 412.28 299.56, 411.96 295.43 C 411.63 291.30, 411.55 289.15, 411.31 285.52 C 411.07 281.89, 411.15 279.90, 410.74 277.27 C 410.33 274.63, 409.93 273.32, 409.26 272.36 C 408.58 271.40, 407.94 271.42, 407.36 272.46" stroke="black" stroke-width="4" stroke-linecap="round" data-duration="250"/><path d="M 481.10,323.67 C 480.30 322.82, 479.12 321.99, 476.62 321.30 C 474.13 320.61, 472.14 320.17, 468.62 320.24 C 465.10 320.31, 462.60 320.73, 459.03 321.65 C 455.46 322.57, 453.57 323.23, 450.79 324.85 C 448.02 326.47, 446.68 327.75, 445.16 329.77 C 443.64 331.79, 443.29 332.84, 443.21 334.94 C 443.14 337.05, 443.56 338.48, 444.77 340.28 C 445.97 342.07, 447.06 342.79, 449.23 343.92 C 451.39 345.06, 452.89 345.65, 455.60 345.94 C 458.32 346.23, 459.92 346.00, 462.78 345.38 C 465.65 344.75, 467.23 344.20, 469.93 342.82 C 472.64 341.44, 474.09 340.46, 476.33 338.48 C 478.56 336.49, 479.51 335.08, 481.11 332.90 C 482.72 330.73, 483.57 329.31, 484.36 327.62 C 485.16 325.92, 485.14 325.03, 485.10 324.43 C 485.06 323.82, 484.45 323.93, 484.17 324.61 C 483.89 325.29, 483.54 326.17, 483.69 327.82 C 483.85 329.46, 484.08 330.87, 484.95 332.84 C 485.82 334.80, 486.69 335.80, 488.05 337.64 C 489.41 339.47, 490.10 340.41, 491.76 342.00 C 493.41 343.60, 494.37 344.51, 496.31 345.60 C 498.25 346.68, 499.48 346.99, 501.45 347.45 C 503.41 347.90, 504.62 348.05, 506.13 347.87 C 507.64 347.68, 508.46 347.09, 509.00 346.52 C 509.55 345.94, 509.36 345.45, 508.85 344.97 C 508.34 344.50, 507.69 344.57, 506.46 344.14 C 505.23 343.71, 504.29 343.36, 502.71 342.84 C 501.12 342.32, 500.06 342.39, 498.54 341.56 C 497.02 340.74, 496.34 340.05, 495.10 338.71 C 493.85 337.36, 493.24 336.49, 492.31 334.84 C 491.39 333.19, 491.19 332.20, 490.48 330.47 C 489.76 328.73, 489.58 327.56, 488.74 326.17 C 487.90 324.77, 487.27 324.14, 486.28 323.49 C 485.29 322.83, 484.91 322.56, 483.78 322.88 C 482.66 323.20, 481.98 323.68, 480.66 325.09 C 479.34 326.51, 478.68 327.98, 477.17 329.94 C 475.67 331.91, 475.02 333.21, 473.14 334.92 C 471.26 336.63, 470.04 337.35, 467.76 338.48 C 465.47 339.61, 464.06 340.05, 461.73 340.56 C 459.40 341.07, 458.20 341.23, 456.09 341.04 C 453.98 340.86, 452.87 340.26, 451.20 339.63 C 449.54 339.00, 448.70 338.81, 447.76 337.90 C 446.82 336.99, 446.44 336.21, 446.50 335.08 C 446.55 333.95, 446.75 333.51, 448.05 332.24 C 449.34 330.97, 450.55 330.02, 452.96 328.76 C 455.38 327.50, 456.96 326.71, 460.11 325.94 C 463.26 325.17, 465.56 324.99, 468.72 324.92 C 471.88 324.85, 473.53 325.46, 475.91 325.59 C 478.29 325.71, 479.59 325.91, 480.63 325.53 C 481.67 325.14, 481.90 324.51, 481.10 323.67" stroke="black" stroke-width="4" stroke-linecap="round" data-duration="250"/><path d="M 546.63,304.18 C 545.90 304.96, 545.54 306.28, 544.99 308.27 C 544.43 310.26, 544.12 311.58, 543.85 314.12 C 543.59 316.67, 543.35 318.31, 543.68 321.00 C 544.02 323.69, 544.47 325.12, 545.53 327.58 C 546.60 330.04, 547.28 331.24, 549.01 333.28 C 550.74 335.33, 552.10 336.52, 554.17 337.81 C 556.24 339.09, 557.59 339.33, 559.35 339.70 C 561.11 340.07, 562.16 339.96, 562.97 339.64 C 563.79 339.33, 563.86 338.83, 563.42 338.14 C 562.97 337.46, 562.06 337.11, 560.75 336.24 C 559.44 335.36, 558.52 334.98, 556.88 333.78 C 555.23 332.57, 553.98 331.79, 552.54 330.21 C 551.10 328.62, 550.45 327.78, 549.68 325.85 C 548.91 323.91, 548.79 322.80, 548.68 320.54 C 548.56 318.29, 548.95 316.92, 549.11 314.57 C 549.26 312.22, 549.54 310.83, 549.45 308.79 C 549.37 306.75, 549.24 305.31, 548.68 304.39 C 548.11 303.47, 547.37 303.40, 546.63 304.18" stroke="black" stroke-width="4" stroke-linecap="round" data-duration="250"/><path d="M 535.98,333.14 C 536.80 333.97, 537.88 334.82, 540.53 335.47 C 543.18 336.13, 545.20 336.25, 549.25 336.43 C 553.29 336.61, 555.83 336.50, 560.74 336.37 C 565.66 336.23, 568.54 336.10, 573.81 335.77 C 579.09 335.43, 581.83 335.12, 587.11 334.70 C 592.39 334.28, 595.18 334.06, 600.21 333.67 C 605.24 333.27, 607.87 333.26, 612.27 332.72 C 616.68 332.19, 618.78 331.71, 622.23 330.99 C 625.69 330.28, 627.13 330.15, 629.54 329.15 C 631.95 328.15, 633.46 326.92, 634.27 325.99 C 635.07 325.05, 634.73 324.49, 633.57 324.49 C 632.40 324.48, 630.86 325.31, 628.45 325.95 C 626.04 326.59, 624.82 326.91, 621.50 327.69 C 618.19 328.47, 616.18 329.18, 611.88 329.85 C 607.57 330.52, 604.98 330.59, 599.99 331.04 C 594.99 331.50, 592.18 331.74, 586.91 332.14 C 581.65 332.54, 578.91 332.83, 573.67 333.05 C 568.43 333.26, 565.56 333.28, 560.73 333.20 C 555.89 333.12, 553.40 333.01, 549.51 332.64 C 545.61 332.27, 543.86 331.61, 541.25 331.36 C 538.63 331.10, 537.48 331.00, 536.42 331.36 C 535.37 331.72, 535.16 332.32, 535.98 333.14" stroke="black" stroke-width="4" stroke-linecap="round" data-duration="250"/><path d="M 645.39,322.67 C 644.81 323.65, 644.28 324.97, 644.37 327.32 C 644.46 329.67, 644.96 332.17, 645.85 334.43 C 646.74 336.69, 647.79 337.49, 648.81 338.61 C 649.84 339.72, 650.36 339.83, 650.97 340.00 C 651.59 340.18, 651.69 340.04, 651.89 339.49 C 652.10 338.93, 652.06 338.60, 652.00 337.23 C 651.95 335.85, 652.14 334.80, 651.62 332.60 C 651.10 330.40, 650.25 328.26, 649.38 326.22 C 648.52 324.19, 648.08 323.13, 647.28 322.42 C 646.48 321.71, 645.97 321.69, 645.39 322.67" stroke="black" stroke-width="4" stroke-linecap="round" data-duration="250"/><path d="M 648.26,276.05 C 648.39 276.67, 649.50 277.33, 650.11 277.15 C 650.72 276.98, 651.43 275.78, 651.29 275.17 C 651.16 274.55, 650.04 273.89, 649.44 274.07 C 648.83 274.24, 648.12 275.43, 648.26 276.05" stroke="black" stroke-width="4" stroke-linecap="round" data-duration="250"/><path d="M 713.89,311.00 C 713.96 310.44, 713.90 310.16, 713.32 309.59 C 712.74 309.02, 712.29 308.41, 711.00 308.15 C 709.71 307.89, 708.60 307.92, 706.87 308.28 C 705.13 308.64, 704.19 309.14, 702.34 309.93 C 700.50 310.72, 699.44 311.11, 697.62 312.22 C 695.80 313.32, 694.68 313.94, 693.23 315.45 C 691.79 316.95, 691.09 317.90, 690.41 319.75 C 689.72 321.60, 689.51 322.66, 689.81 324.70 C 690.10 326.73, 690.45 327.99, 691.88 329.93 C 693.31 331.87, 694.52 332.89, 696.96 334.41 C 699.39 335.92, 700.98 336.38, 704.07 337.51 C 707.17 338.64, 708.98 339.27, 712.41 340.05 C 715.83 340.83, 717.76 341.23, 721.20 341.40 C 724.63 341.57, 726.48 341.53, 729.58 340.92 C 732.69 340.31, 734.27 339.78, 736.72 338.34 C 739.17 336.91, 740.24 335.88, 741.81 333.74 C 743.38 331.59, 743.99 330.22, 744.57 327.61 C 745.14 325.01, 744.97 323.44, 744.68 320.72 C 744.39 318.01, 744.23 316.39, 743.13 314.06 C 742.04 311.72, 740.37 309.84, 739.19 309.05 C 738.00 308.26, 737.29 308.77, 737.21 310.08 C 737.13 311.40, 738.23 313.38, 738.78 315.62 C 739.33 317.87, 739.65 319.05, 739.95 321.29 C 740.26 323.53, 740.58 324.80, 740.30 326.82 C 740.01 328.83, 739.65 329.78, 738.52 331.36 C 737.40 332.94, 736.61 333.65, 734.65 334.72 C 732.70 335.79, 731.41 336.20, 728.76 336.71 C 726.11 337.22, 724.48 337.42, 721.41 337.26 C 718.34 337.10, 716.54 336.74, 713.41 335.93 C 710.29 335.11, 708.54 334.35, 705.78 333.18 C 703.01 332.01, 701.67 331.30, 699.59 330.07 C 697.52 328.84, 696.56 328.24, 695.39 327.03 C 694.22 325.82, 693.98 325.16, 693.72 324.02 C 693.47 322.88, 693.59 322.35, 694.13 321.32 C 694.66 320.29, 695.19 319.79, 696.38 318.87 C 697.58 317.96, 698.50 317.50, 700.09 316.74 C 701.68 315.98, 702.73 315.63, 704.34 315.07 C 705.95 314.52, 706.83 314.29, 708.14 313.96 C 709.45 313.64, 710.08 313.66, 710.87 313.45 C 711.67 313.24, 711.70 313.11, 712.13 312.91 C 712.55 312.70, 712.65 312.79, 713.00 312.41 C 713.36 312.03, 713.83 311.56, 713.89 311.00" stroke="black" stroke-width="4" stroke-linecap="round" data-duration="250"/><path d="M 766.27,313.06 C 765.52 313.80, 764.95 315.16, 764.60 317.10 C 764.24 319.05, 764.14 320.21, 764.51 322.77 C 764.87 325.32, 765.18 327.20, 766.41 329.89 C 767.64 332.57, 768.73 333.89, 770.66 336.20 C 772.59 338.51, 773.69 339.65, 776.06 341.42 C 778.43 343.19, 779.84 343.97, 782.51 345.06 C 785.17 346.15, 786.54 346.48, 789.39 346.87 C 792.24 347.26, 793.80 347.44, 796.76 347.00 C 799.72 346.55, 801.36 345.88, 804.20 344.64 C 807.04 343.41, 808.41 342.59, 810.94 340.82 C 813.48 339.05, 814.75 338.00, 816.87 335.81 C 818.99 333.62, 820.08 332.17, 821.54 329.87 C 822.99 327.56, 823.42 326.01, 824.14 324.28 C 824.86 322.55, 824.79 321.77, 825.14 321.22 C 825.48 320.66, 825.37 320.79, 825.87 321.51 C 826.38 322.24, 826.60 323.07, 827.67 324.82 C 828.74 326.57, 829.40 328.05, 831.22 330.25 C 833.04 332.46, 834.48 333.68, 836.76 335.84 C 839.05 337.99, 840.23 339.26, 842.65 341.03 C 845.06 342.80, 846.61 343.78, 848.86 344.69 C 851.11 345.60, 852.74 345.71, 853.88 345.57 C 855.01 345.43, 855.15 344.86, 854.54 343.99 C 853.93 343.12, 852.60 342.57, 850.82 341.21 C 849.04 339.85, 847.76 338.97, 845.65 337.19 C 843.54 335.42, 842.25 334.45, 840.26 332.34 C 838.26 330.22, 837.41 328.77, 835.67 326.62 C 833.94 324.47, 833.24 323.15, 831.60 321.59 C 829.95 320.04, 829.03 319.35, 827.43 318.85 C 825.84 318.34, 825.03 318.40, 823.63 319.06 C 822.24 319.73, 821.68 320.51, 820.46 322.15 C 819.23 323.79, 818.88 325.16, 817.50 327.26 C 816.11 329.35, 815.34 330.66, 813.51 332.62 C 811.68 334.59, 810.58 335.54, 808.35 337.10 C 806.12 338.66, 804.82 339.34, 802.36 340.41 C 799.90 341.48, 798.52 342.04, 796.04 342.45 C 793.57 342.86, 792.34 342.78, 789.97 342.47 C 787.61 342.16, 786.45 341.85, 784.24 340.90 C 782.02 339.96, 780.84 339.30, 778.89 337.74 C 776.94 336.19, 776.01 335.13, 774.48 333.13 C 772.94 331.12, 772.19 329.98, 771.20 327.73 C 770.21 325.48, 769.99 323.96, 769.52 321.87 C 769.04 319.77, 769.06 318.94, 768.83 317.24 C 768.59 315.55, 768.87 314.21, 768.36 313.38 C 767.84 312.54, 767.02 312.31, 766.27 313.06" stroke="black" stroke-width="4" stroke-linecap="round" data-duration="250"/><path d="M 905.83,308.98 C 904.94 308.16, 903.61 307.20, 900.98 306.76 C 898.34 306.31, 896.32 306.50, 892.68 306.75 C 889.03 307.00, 886.58 307.30, 882.74 307.99 C 878.89 308.67, 876.61 308.99, 873.45 310.17 C 870.30 311.34, 868.81 312.08, 866.96 313.86 C 865.10 315.63, 864.41 316.82, 864.17 319.05 C 863.93 321.29, 864.14 322.72, 865.76 325.03 C 867.38 327.35, 869.18 328.44, 872.29 330.63 C 875.40 332.81, 877.63 333.84, 881.31 335.96 C 884.99 338.09, 887.03 339.15, 890.68 341.25 C 894.33 343.36, 896.45 344.58, 899.56 346.48 C 902.67 348.39, 904.20 349.49, 906.23 350.79 C 908.26 352.08, 909.05 352.32, 909.71 352.96 C 910.37 353.60, 910.45 353.69, 909.53 353.98 C 908.60 354.28, 907.62 354.00, 905.07 354.43 C 902.52 354.86, 900.77 355.59, 896.79 356.13 C 892.81 356.67, 890.09 356.89, 885.16 357.14 C 880.23 357.39, 877.21 357.41, 872.15 357.38 C 867.09 357.34, 864.35 357.17, 859.87 356.98 C 855.39 356.79, 853.01 356.59, 849.73 356.44 C 846.45 356.29, 845.42 356.20, 843.47 356.24 C 841.52 356.28, 840.72 356.32, 839.99 356.64 C 839.27 356.95, 839.22 357.34, 839.86 357.82 C 840.49 358.30, 841.25 358.58, 843.19 359.02 C 845.12 359.46, 846.22 359.81, 849.55 360.00 C 852.87 360.19, 855.27 359.94, 859.79 359.99 C 864.30 360.04, 867.03 360.20, 872.12 360.26 C 877.22 360.33, 880.25 360.36, 885.26 360.31 C 890.27 360.27, 892.99 360.26, 897.16 360.03 C 901.34 359.79, 903.33 359.94, 906.15 359.14 C 908.96 358.34, 910.10 357.49, 911.25 356.04 C 912.41 354.58, 912.43 353.55, 911.90 351.85 C 911.37 350.15, 910.70 349.23, 908.61 347.52 C 906.51 345.82, 904.67 345.17, 901.42 343.33 C 898.18 341.48, 896.03 340.40, 892.38 338.30 C 888.74 336.20, 886.72 335.05, 883.20 332.83 C 879.67 330.62, 877.58 329.31, 874.74 327.22 C 871.90 325.13, 870.54 323.99, 869.01 322.40 C 867.48 320.82, 867.04 320.45, 867.09 319.30 C 867.14 318.15, 867.71 317.68, 869.26 316.65 C 870.81 315.61, 872.00 315.06, 874.83 314.15 C 877.67 313.24, 879.82 312.71, 883.45 312.11 C 887.07 311.51, 889.52 311.35, 892.96 311.14 C 896.40 310.92, 898.16 311.10, 900.65 311.04 C 903.15 310.99, 904.40 311.26, 905.44 310.85 C 906.47 310.44, 906.72 309.80, 905.83 308.98" stroke="black" stroke-width="4" stroke-linecap="round" data-duration="250"/></svg>